<svg height="60" viewBox="0 0 512.081 512.081" width="60" fill="#fe8b5f" xmlns="http://www.w3.org/2000/svg"><path d="M178.82 280.957a7.501 7.501 0 00.705-14.967l-19.474-1.862c-.539-4.249-.299-9.508.343-13.063a53.405 53.405 0 005.656-4.016c31.839-25.761 47.316-48.141 47.316-68.419 0-2.076-.086-4.164-.255-6.207l-.01-.117c-.191-1.933-.315-5.995-.395-11.271h6.733c14.167 0 25.692-11.53 25.692-25.703 0-6.276-2.26-12.034-6.009-16.502 4.323-23.887 3.544-47.532-2.197-65.336-7.151-23.231-28.948-39.908-63.028-48.226-43.649-10.686-97.852-6.755-113.75 27.123-9.635 1.064-17.837 5.787-23.745 13.68-12.834 17.15-13.416 47.244-9.5 71.247-4.564 4.642-7.383 11.005-7.383 18.015 0 14.173 11.525 25.703 25.691 25.703h6.165c-.129 5.31-.297 9.368-.496 11.392a70.46 70.46 0 00-.259 6.203c0 20.273 15.471 42.646 47.279 68.385a53.57 53.57 0 005.349 3.83c.675 3.565.936 8.976.38 13.32l-74.912 7.658C12.283 273.693-.044 287.579.04 304.088v200.495a7.5 7.5 0 0015 0V304.047c-.045-8.873 6.562-16.319 15.286-17.312l72.977-7.46c3.561 12.409 15.007 21.515 28.538 21.515 13.547 0 25.005-9.128 28.551-21.561l17.704 1.693c.244.024.485.035.724.035zm51.311-145.625c0 5.902-4.796 10.703-10.692 10.703h-6.852a4493.39 4493.39 0 01-.003-21.407h6.856c5.895 0 10.691 4.802 10.691 10.704zM51.61 146.035h-6.399c-5.895 0-10.691-4.801-10.691-10.703s4.796-10.704 10.691-10.704h6.446c.032 7.237.014 14.627-.047 21.407zm80.232 139.756c-7.719 0-14.065-5.993-14.643-13.576 1.364-4.373 1.834-9.678 1.715-14.711a53.674 53.674 0 0012.962 1.595h.243c4.279 0 8.526-.517 12.647-1.517-.112 5.009.36 10.281 1.717 14.632-.576 7.583-6.923 13.577-14.641 13.577zm.244-41.692h-.176a39.007 39.007 0 01-24.559-8.731C80.05 213.277 65.62 193.657 65.62 178.63c0-1.742.067-3.382.193-4.804.836-8.5 1.064-44.214.655-66.466a12.274 12.274 0 016.602-11.187c3.259-1.421 7.062-2.72 11.306-3.861 4-1.076 6.371-5.19 5.295-9.19s-5.188-6.371-9.19-5.295c-5.057 1.36-9.645 2.941-13.638 4.699a8.385 8.385 0 00-.333.156c-9.414 4.708-15.316 14.55-15.039 25.015.012.637.023 1.281.033 1.933h-6.296c-1.438 0-2.849.119-4.223.347-2.498-19.307-1.809-42.577 7.427-54.918 3.509-4.689 7.983-7.237 13.773-7.799a14.294 14.294 0 0011.594-8.609c6.991-14.732 24.927-20.254 38.765-22.293 17.285-2.547 38.346-1.278 57.791 3.482 19.994 4.88 45.29 15.445 52.284 38.163 4.579 14.203 5.498 32.865 2.695 52.305a25.687 25.687 0 00-5.875-.678h-6.829l.002-1.978c.234-10.548-5.722-20.351-15.197-24.996a7.308 7.308 0 00-.253-.119c-18.836-8.379-50.2-12.259-81.855-10.126a7.5 7.5 0 00-6.979 7.987c.278 4.132 3.854 7.264 7.987 6.979 28.841-1.943 58.098 1.512 74.611 8.804a12.196 12.196 0 016.688 11.184l-.002.212.556 66.139c.132 1.616.2 3.269.2 4.916 0 15.032-14.438 34.659-41.764 56.769a38.968 38.968 0 01-24.518 8.698zM483.325 308.835l-75.231-8.153a7.559 7.559 0 00-1.761.015c-.468-4.166-.223-9.183.397-12.614a53.405 53.405 0 005.656-4.016c31.839-25.761 47.316-48.141 47.316-68.42 0-2.076-.086-4.164-.255-6.206l-.01-.116c-.191-1.933-.315-5.995-.395-11.272h6.734c14.167 0 25.691-11.53 25.691-25.703s-11.525-25.704-25.691-25.704h-6.83l.002-1.682V127.904a7.5 7.5 0 00-15 0v10.864c-3.07.487-6.188.733-9.321.733-20.177 0-38.738-10.161-49.651-27.18a7.502 7.502 0 00-6.302-3.452l-1.001.001a7.502 7.502 0 00-6.291 3.452c-10.913 17.019-29.474 27.179-49.65 27.179a59.57 59.57 0 01-8.915-.67v-47.86c0-15.545 12.636-28.191 28.168-28.191h72.796c16.635 0 30.168 13.544 30.168 30.192a7.5 7.5 0 0015 0c0-22.363-16.319-40.984-37.668-44.569v-4.425c0-24.206-19.692-43.898-43.898-43.898s-43.898 19.692-43.898 43.898v4.454c-20.241 3.562-35.668 21.281-35.668 42.538v53.985l.001.059v.075l.027 1.555h-6.296c-14.167 0-25.691 11.531-25.691 25.704s11.525 25.703 25.691 25.703h6.163c-.129 5.318-.295 9.378-.493 11.39a70.425 70.425 0 00-.26 6.205c0 20.273 15.471 42.646 47.279 68.385a53.41 53.41 0 005.349 3.83c.924 4.882 1.072 13.223-.592 17.549a7.49 7.49 0 00-.5 2.693c0 16.378 13.317 29.704 29.685 29.704 13.767 0 25.375-9.427 28.717-22.168l74.775 8.104c8.808 1.001 15.416 8.448 15.37 17.359V504.58a7.5 7.5 0 0015 0V341.142c.082-16.547-12.245-30.434-28.717-32.307zm-24.406-147.189h6.856c5.895 0 10.691 4.802 10.691 10.704s-4.796 10.703-10.691 10.703h-6.853a4493.39 4493.39 0 01-.003-21.407zM348.483 43.979c0-15.935 12.963-28.898 28.898-28.898s28.898 12.963 28.898 28.898v3.801h-57.796zm-50.54 139.073h-6.397c-5.895 0-10.691-4.801-10.691-10.703s4.796-10.704 10.691-10.704h6.444c.032 7.231.014 14.623-.047 21.407zm80.235 139.756c-7.718 0-14.065-5.994-14.642-13.576 1.364-4.373 1.834-9.677 1.715-14.71a53.643 53.643 0 0012.965 1.595h.238c4.28 0 8.528-.517 12.65-1.517-.112 5.009.36 10.281 1.717 14.632-.578 7.583-6.925 13.576-14.643 13.576zm.242-41.691h-.098c-8.955-.031-17.688-3.079-24.635-8.732-27.301-22.092-41.731-41.711-41.731-56.738 0-1.743.067-3.382.194-4.804.72-7.318.989-35.188.785-56.861 2.911.346 5.849.52 8.794.52 22.009 0 42.483-9.634 56.448-26.178 13.964 16.544 34.439 26.178 56.448 26.178 3.12 0 6.229-.195 9.308-.583l-.005 2.451c-.043 22.246-.092 47.451.575 54.364a60.57 60.57 0 01.199 4.913c0 15.032-14.438 34.659-41.764 56.77a38.952 38.952 0 01-24.518 8.7zM295.971 404.879h-12.468c-.493-4.495-.162-9.955.569-13.344 18.815-16.139 27.979-30.502 27.979-43.8 0-1.455-.06-2.917-.179-4.342l-.01-.116c-.071-.724-.128-1.928-.174-3.492h.027c9.725 0 18.058-6.439 20.265-15.66 1.507-6.298.109-12.779-3.837-17.781-3.945-5-9.857-7.869-16.222-7.869h-.405a55.931 55.931 0 00-3.731-18.344 7.5 7.5 0 00-13.992 5.406 41.049 41.049 0 012.756 14.856l.38 44.29c.082.999.123 2.025.123 3.051 0 9.098-9.545 21.831-26.892 35.866a23.436 23.436 0 01-14.758 5.234h-.105a23.47 23.47 0 01-14.782-5.258c-17.324-14.019-26.865-26.748-26.865-35.842 0-1.087.042-2.104.117-2.954.572-5.817.62-30.567.4-44.438.029-22.705 18.496-41.166 41.191-41.166 6.783 0 13.239 1.593 19.19 4.736a7.501 7.501 0 007.004-13.264c-8.018-4.233-17.075-6.471-26.194-6.471-30.34 0-55.141 24.185-56.158 54.298h-.446c-6.364 0-12.276 2.868-16.222 7.868-3.946 5.002-5.345 11.483-3.838 17.781 2.207 9.221 10.54 15.66 20.265 15.66h.064c-.056 1.636-.12 2.874-.191 3.596a49.41 49.41 0 00-.183 4.354c0 13.304 9.174 27.674 27.996 43.813.73 3.39 1.059 8.842.567 13.331H216.11c-29.883 0-54.195 24.325-54.195 54.225v45.477a7.5 7.5 0 0015 0v-45.477c0-21.629 17.583-39.225 39.195-39.225h10.521c3.33 12.759 14.946 22.204 28.726 22.204s25.397-9.444 28.727-22.204h11.887c21.612 0 39.194 17.596 39.194 39.225v45.477a7.5 7.5 0 0015 0v-45.477c.001-29.899-24.311-54.224-54.194-54.224zm15.556-91.403h.394a5.63 5.63 0 014.445 2.159c.637.807 1.617 2.53 1.026 4.999-.576 2.405-2.963 4.151-5.677 4.151h-.188c-.008-3.708-.005-7.595 0-11.309zm-112.261 11.309h-.307c-2.714 0-5.102-1.746-5.677-4.151-.591-2.469.39-4.192 1.027-4.999a5.63 5.63 0 014.445-2.159h.53c.011 3.846.005 7.698-.018 11.309zm56.092 102.298c-7.718 0-14.065-5.994-14.642-13.576 1.111-3.563 1.629-7.745 1.719-11.894a38.324 38.324 0 0012.829 2.222h.171c4.397 0 8.746-.765 12.847-2.224.089 4.15.607 8.332 1.719 11.896-.578 7.582-6.925 13.576-14.643 13.576z"/><path d="M147.923 187.118a7.5 7.5 0 00-7.5 7.5c0 4.725-3.838 8.569-8.556 8.569s-8.556-3.844-8.556-8.569a7.5 7.5 0 00-15 0c0 12.996 10.567 23.569 23.556 23.569s23.556-10.573 23.556-23.569a7.5 7.5 0 00-7.5-7.5zM120.562 172.657a7.497 7.497 0 0010.117-3.184 1.673 1.673 0 012.97-.001 7.499 7.499 0 0010.117 3.184 7.5 7.5 0 003.185-10.117 16.624 16.624 0 00-14.787-8.968 16.623 16.623 0 00-14.786 8.967 7.502 7.502 0 003.184 10.119zM394.258 224.135a7.5 7.5 0 00-7.5 7.5c0 4.725-3.838 8.569-8.556 8.569s-8.556-3.844-8.556-8.569a7.5 7.5 0 00-15 0c0 12.996 10.567 23.569 23.556 23.569s23.556-10.573 23.556-23.569a7.5 7.5 0 00-7.5-7.5zM366.899 209.675a7.499 7.499 0 0010.117-3.185 1.67 1.67 0 011.484-.9c.749 0 1.258.465 1.485.9a7.499 7.499 0 0010.117 3.184 7.5 7.5 0 003.185-10.117c-2.883-5.531-8.549-8.968-14.787-8.968s-11.903 3.437-14.786 8.968a7.501 7.501 0 003.185 10.118zM62.531 333.058a7.5 7.5 0 00-7.5 7.5v164.023a7.5 7.5 0 0015 0V340.558a7.5 7.5 0 00-7.5-7.5zM449.55 370.075a7.5 7.5 0 00-7.5 7.5v127.006a7.5 7.5 0 0015 0V377.575a7.5 7.5 0 00-7.5-7.5zM209.408 461.608a7.5 7.5 0 00-7.5 7.5v35.472a7.5 7.5 0 0015 0v-35.472a7.5 7.5 0 00-7.5-7.5zM303.457 461.608a7.5 7.5 0 00-7.5 7.5v35.472a7.5 7.5 0 0015 0v-35.472a7.5 7.5 0 00-7.5-7.5zM256.84 347.934a1.671 1.671 0 01-2.969 0 7.5 7.5 0 00-13.302 6.932c2.883 5.532 8.549 8.968 14.787 8.968s11.903-3.437 14.786-8.968a7.5 7.5 0 00-3.185-10.117 7.5 7.5 0 00-10.117 3.185z"/></svg>