<svg xmlns="http://www.w3.org/2000/svg" width="60" height="60" viewBox="0 0 128 128" fill="#fe8b5f"><path d="M85.113 39.681a19.672 19.672 0 00-5.188-7.638 1.75 1.75 0 00-2.4 2.545 16.259 16.259 0 014.3 6.292 1.748 1.748 0 001.644 1.15 1.748 1.748 0 001.644-2.349zM26.651 95.586h6a1.749 1.749 0 001.75-1.75v-6a1.749 1.749 0 00-1.75-1.75h-6a1.75 1.75 0 00-1.75 1.75v6a1.75 1.75 0 001.75 1.75zm1.75-6h2.5v2.5H28.4zM26.651 110.167h6a1.749 1.749 0 001.75-1.75v-6a1.749 1.749 0 00-1.75-1.75h-6a1.75 1.75 0 00-1.75 1.75v6a1.75 1.75 0 001.75 1.75zm1.75-6h2.5v2.5H28.4zM93.6 87.836v6a1.749 1.749 0 001.75 1.75h6a1.75 1.75 0 001.75-1.75v-6a1.75 1.75 0 00-1.75-1.75h-6a1.749 1.749 0 00-1.75 1.75zm3.5 1.75h2.5v2.5h-2.5zM101.349 100.667h-6a1.749 1.749 0 00-1.75 1.75v6a1.749 1.749 0 001.75 1.75h6a1.75 1.75 0 001.75-1.75v-6a1.75 1.75 0 00-1.75-1.75zm-1.75 6H97.1v-2.5h2.5z"/><path d="M121.625 40.75h-1.265c-.136-7.247-2.311-10.509-4.49-11.942V24.42a1.75 1.75 0 00-3.5 0v4.395c-2.176 1.436-4.344 4.7-4.48 11.935h-1.265a1.75 1.75 0 000 3.5h1.25v29.33H102.5v-7.7a1.75 1.75 0 00-1.75-1.75H88.822v-2.408a25.387 25.387 0 002.671-6.8h3.34a1.75 1.75 0 000-3.5H92.11a35.606 35.606 0 00-.01-7.922c-1.444-13.416-11.755-19.3-20.041-24.025a63.212 63.212 0 01-6.309-3.911V6.5a1.75 1.75 0 00-3.5 0v9.064a63.212 63.212 0 01-6.309 3.911C47.655 24.2 37.344 30.084 35.9 43.5a35.606 35.606 0 00-.01 7.914h-2.723a1.75 1.75 0 000 3.5h3.341a25.284 25.284 0 002.67 6.791v2.425H27.25a1.75 1.75 0 00-1.75 1.75v7.7h-5.375V44.25h1.25a1.75 1.75 0 000-3.5H20.11c-.136-7.236-2.3-10.5-4.48-11.935V24.42a1.75 1.75 0 00-3.5 0v4.388C9.951 30.241 7.776 33.5 7.64 40.75H6.375a1.75 1.75 0 000 3.5h1.25v77.25a1.75 1.75 0 001.75 1.75h109.25a1.75 1.75 0 001.75-1.75V44.25h1.25a1.75 1.75 0 000-3.5zm-7.5-8.895c1.669 1.27 2.637 4.434 2.731 8.9h-5.462c.094-4.466 1.062-7.63 2.731-8.9zm-2.75 50.728h5.5V98.25h-5.5zm5.5-3.5h-5.5V63.417h5.5zm-9 40.667H88.822V77.08h19.053zM99 67.63v5.95H88.822v-5.95zM39.38 43.878c1.253-11.641 10.307-16.806 18.295-21.362A71.589 71.589 0 0064 18.625a71.589 71.589 0 006.325 3.891c7.988 4.556 17.042 9.721 18.3 21.362a31.743 31.743 0 01-.041 7.539H39.421a31.742 31.742 0 01-.041-7.539zm48.5 11.039a21.687 21.687 0 01-2.057 5H42.185a21.515 21.515 0 01-2.063-5zM29 67.63h10.178v5.95H29zm10.178 9.45v42.67H20.125V77.08zm-22.553 2h-5.5V63.417h5.5zm-5.5 3.5h5.5v15.67h-5.5zm2.75-50.728c1.669 1.27 2.637 4.434 2.731 8.9h-5.462c.094-4.463 1.062-7.627 2.731-8.897zm2.75 12.4v15.665h-5.5V44.25zm-2.745 75.5h-2.755v-18h5.5v18zm40.62 0V104.5c0-11.06 7.158-15.972 9.495-17.279C66.3 88.525 73.5 93.5 73.5 104.5v15.25zm22.5 0V104.5c0-15.282-11.8-20.629-12.3-20.849a1.746 1.746 0 00-1.406 0c-.5.22-12.3 5.567-12.3 20.849v15.25h-8.316V63.417h42.644v56.332zm37.12 0h-2.745v-18h5.5v18zm2.755-59.833h-5.5V44.25h5.5z"/><path d="M54.5 69.146h-6a1.75 1.75 0 00-1.75 1.75v6a1.751 1.751 0 001.75 1.75h6a1.751 1.751 0 001.75-1.75v-6a1.75 1.75 0 00-1.75-1.75zm-1.75 6h-2.5v-2.5h2.5zM79.5 69.146h-6a1.75 1.75 0 00-1.75 1.75v6a1.751 1.751 0 001.75 1.75h6a1.751 1.751 0 001.75-1.75v-6a1.75 1.75 0 00-1.75-1.75zm-1.75 6h-2.5v-2.5h2.5zM67 69.146h-6a1.75 1.75 0 00-1.75 1.75v6a1.751 1.751 0 001.75 1.75h6a1.751 1.751 0 001.75-1.75v-6a1.75 1.75 0 00-1.75-1.75zm-1.75 6h-2.5v-2.5h2.5z"/></svg>