<svg height="60" viewBox="0 0 512.002 512.002" width="60" fill="#fe8b5f" xmlns="http://www.w3.org/2000/svg"><path d="M461.995 95.705a7.5 7.5 0 10-11.853 9.193c23.043 29.708 36.302 66.1 37.839 103.405l-100.71-26.985c4.205-26.688 5.862-53.797 4.912-80.689a422.972 422.972 0 00-4.27-46.692 179.314 179.314 0 0139.254 26.421 7.5 7.5 0 009.951-11.223c-19.593-17.37-42.519-30.461-67.246-38.806l7.247-20.305a7.5 7.5 0 10-14.126-5.042l-7.546 21.143c-84.898-21.066-173.868 17.536-216.858 94.281-.579 1.075-1.121 2.448-1.005 4.288l2.658 39.097a17.502 17.502 0 0012.931 15.717l74.064 19.845c7.112 1.908 14.867-.895 19.056-7.146l9.628-14.333 1.171 17.227a17.502 17.502 0 0012.931 15.717l29.785 7.981-41.942 156.527-70.156-.203h-.022a7.501 7.501 0 00-7.5 7.479 7.499 7.499 0 007.479 7.521l146.879.425h.073c7.344 0 14.5-3.005 19.642-8.252l52.861-53.939c10.908-11.131 27.507-15.141 42.292-10.21l16.076 5.358-100.237 100.93a22.645 22.645 0 01-15.964 6.645H58.964c-.759-11.398 2.398-22.492 10.601-30.667 6.807-6.784 15.838-10.516 25.441-10.516h.124l57.53.21h.028a7.5 7.5 0 00.027-15l-57.533-.21c-13.697-.052-26.525 5.242-36.206 14.892-12.195 12.156-15.012 28.829-15.012 45.791 0 5.79 4.71 10.5 10.5 10.5h18.037l-15.515 34.097c-2.509 5.515-2.594 11.521-.715 16.825h-39.9c-4.142 0-7.5 3.357-7.5 7.5s3.358 7.5 7.5 7.5h461.523c4.142 0 7.5-3.357 7.5-7.5s-3.358-7.5-7.5-7.5h-70.41c1.879-5.304 1.794-11.311-.715-16.826l-23.795-52.297 98.271-98.953c5.439-5.393 3.071-15.024-4.131-17.359l-22.957-7.652c-20.188-6.728-42.855-1.257-57.749 13.941l-52.861 53.939a12.57 12.57 0 01-8.927 3.751h-.033l-61.205-.177 40.913-152.69 29.79 7.982c7.111 1.91 14.868-.896 19.057-7.146l9.628-14.333 1.171 17.227a17.502 17.502 0 0012.931 15.717l74.063 19.845c7.112 1.908 14.868-.894 19.057-7.146l21.85-32.53c.645-1.043 1.275-2.374 1.274-4.213.565-44.002-14.034-87.458-41.121-122.377zM77.463 497.002a7.455 7.455 0 01-3.104-.676c-3.764-1.713-5.433-6.171-3.719-9.938l18.342-40.309h16.49l-21.175 46.527a7.521 7.521 0 01-6.834 4.396zm147.805 0H98.776l23.175-50.922H238.91zm15.529 0l13.642-50.922h87.367l23.175 50.922zm152.319-10.614c1.713 3.768.045 8.226-3.734 9.944a7.351 7.351 0 01-3.079.67 7.545 7.545 0 01-6.844-4.396l-21.633-47.535a37.936 37.936 0 0013.639-6.267zM233.84 183.841a2.5 2.5 0 01-2.722 1.021l-74.064-19.845a2.5 2.5 0 01-1.847-2.245l-1.946-28.628 96.578 25.878zm23.365-37.375l-100.631-26.964c36.324-57.511 101.663-89.311 168.11-83.384-11.662 12.723-22.371 26.339-31.917 40.648-14.496 21.725-26.436 45.145-35.562 69.7zm93.485 68.685a2.499 2.499 0 01-2.723 1.021l-74.063-19.845a2.5 2.5 0 01-1.847-2.245l-1.946-28.628 96.578 25.878zm22.007-37.739l-100.935-27.045c8.657-22.982 19.894-44.909 33.483-65.275 11.042-16.549 23.711-32.128 37.661-46.392a176.665 176.665 0 0128.683 8.146c3.071 17.934 4.965 36.181 5.605 54.313.896 25.407-.621 51.018-4.497 76.253zm94.842 69.049a2.5 2.5 0 01-2.723 1.021l-74.063-19.845a2.499 2.499 0 01-1.847-2.245l-1.946-28.627 96.578 25.878z"/></svg>