<svg height="60" fill="#fe8b5f" viewBox="0 0 512.002 512.002" width="60" xmlns="http://www.w3.org/2000/svg"><path d="M198.623 86.605c5.522 0 10-4.478 10-10s-4.478-10-10-10h-.007c-5.522 0-9.996 4.478-9.996 10s4.481 10 10.003 10z"/><path d="M479.352 446.702h-183.35V369.58c38.766-2.696 77.175-9.311 114.186-19.861a10.4 10.4 0 00.661-.214c5.279-1.688 9.657-5.338 12.381-10.339 5.781-10.621 2.383-23.826-7.75-30.07-21.975-13.496-41.402-30.74-59.198-48.443 9.098-1.553 18.146-3.62 27.314-6.233a9.99 9.99 0 001.104-.386c5.098-1.755 9.313-5.356 11.952-10.243 5.743-10.63 2.305-23.81-7.81-29.994-22.842-14.028-42.83-31.008-58.618-49.701 17.794-2.574 32.304-7.656 45.581-15.811.241-.148.474-.306.698-.471 3.693-2.47 6.519-5.991 8.198-10.23 4.407-11.132-.685-24.075-11.357-28.856-46.104-20.618-69.563-59.295-83.579-82.405C281.032 11.921 272.463 0 256.008 0c-16.454 0-25.023 11.921-33.757 26.321a805.4 805.4 0 01-5.385 8.785c-2.925 4.685-1.498 10.854 3.187 13.778s10.854 1.498 13.778-3.187c2.02-3.234 3.879-6.3 5.52-9.005C248.749 21.197 252.183 20 256.008 20s7.26 1.197 16.658 16.695c14.229 23.458 40.712 67.123 92.508 90.287.87.39 1.467 1.89.934 3.237-.229.577-.552.868-.783 1.01-.164.102-.325.206-.481.315-14.469 8.756-31.188 13.173-54.104 14.311a9.998 9.998 0 00-7.69 15.732c18.548 26.432 44.596 50.378 75.344 69.263.876.536 1.356 2.153.664 3.436-.33.61-.733.803-.943.862-.278.079-.55.169-.814.27-14.425 4.06-28.527 6.653-43.081 7.926a10 10 0 00-6.346 16.883c22.462 23.421 47.353 47.616 77.129 65.905.885.545 1.367 2.181.664 3.472-.334.613-.743.807-.957.868-.166.047-.33.099-.493.153-95.757 27.193-201.177 27.146-296.91-.142-.846-.24-1.558-1.595-1.209-2.982.229-.914.753-1.291.967-1.41.131-.072.26-.148.387-.227 29.605-18.271 54.357-42.345 76.696-65.638a10 10 0 00-6.346-16.883c-14.829-1.296-29.187-3.964-43.902-8.159-.846-.24-1.559-1.595-1.209-2.984.238-.947.786-1.317 1.011-1.432.241-.124.477-.257.707-.398 30.396-18.803 56.18-42.587 74.563-68.782a10.003 10.003 0 00.799-10.136 10.003 10.003 0 00-8.489-5.596c-23.179-1.15-40.018-5.657-54.587-14.605-.884-.545-1.366-2.18-.661-3.475.284-.522.622-.74.856-.831.167-.065.332-.135.495-.208a169.216 169.216 0 0022.608-12.373c4.629-3.013 5.938-9.207 2.926-13.836-3.012-4.626-9.205-5.938-13.836-2.926a149.071 149.071 0 01-19.725 10.814c-4.604 1.868-8.465 5.338-10.892 9.798-5.783 10.621-2.386 23.826 7.748 30.071 13.276 8.153 27.785 13.236 45.58 15.81-15.555 18.416-35.196 35.178-57.619 49.087-5.396 2.913-9.351 8.044-10.882 14.147-2.947 11.729 3.844 23.882 15.131 27.091 9.169 2.613 18.217 4.681 27.314 6.233-17.636 17.544-36.883 34.646-58.631 48.094-5.142 2.947-8.928 7.992-10.406 13.882-2.947 11.729 3.845 23.883 15.132 27.091 37.006 10.548 75.41 17.164 114.171 19.86v61.623c-1.782-.656-3.554-1.314-5.321-1.971-19.353-7.193-37.632-13.987-60.628-13.987-21.24 0-36.188 9.063-49.376 17.059-12.743 7.727-23.748 14.399-39.966 14.399h-28.06C14.646 446.702 0 461.349 0 479.352c0 18.004 14.646 32.65 32.649 32.65h446.702c18.004 0 32.65-14.646 32.65-32.65.001-18.003-14.646-32.65-32.649-32.65zM236 370.625c6.666.231 13.337.35 20.008.35a576.9 576.9 0 0019.994-.35v75.268c-15.304-1.352-28.219-4.283-40.002-7.859zm243.352 121.377H32.649c-6.975 0-12.649-5.675-12.649-12.65s5.675-12.649 12.649-12.649h28.06c21.808 0 36.963-9.189 50.335-17.297 12.533-7.599 23.356-14.161 39.007-14.161 19.399 0 35.276 5.901 53.66 12.734 23.612 8.776 50.376 18.724 91.047 18.724h184.594c6.976 0 12.65 5.675 12.65 12.649 0 6.975-5.675 12.65-12.65 12.65z"/><path d="M269.839 103.702h-.007c-5.522 0-9.997 4.478-9.997 10s4.481 10 10.004 10 10-4.478 10-10-4.478-10-10-10zM247.839 201.702c0-5.522-4.478-10-10-10h-.007c-5.522 0-9.997 4.478-9.997 10s4.481 10 10.004 10 10-4.477 10-10zM285.839 285.702c5.522 0 10-4.478 10-10s-4.478-10-10-10h-.007c-5.522 0-9.997 4.478-9.997 10s4.481 10 10.004 10zM208.832 294.703c-5.522 0-9.997 4.478-9.997 10s4.481 10 10.004 10 10-4.478 10-10-4.478-10-10-10z"/></svg>